<?xml version="1.0" encoding="UTF-8"?>
<svg width="485px" height="260px" viewBox="0 0 485 260" version="1.1" xmlns="http://www.w3.org/2000/svg" xmlns:xlink="http://www.w3.org/1999/xlink">
    <title>Youpic pro badge</title>
    <defs>
        <linearGradient x1="96.6542802%" y1="35.630779%" x2="0%" y2="65.5738378%" id="linearGradient-1">
            <stop stop-color="#FFDD33" offset="0%"></stop>
            <stop stop-color="#C38700" offset="100%"></stop>
        </linearGradient>
    </defs>
    <g id="Youpic-pro-badge" stroke="none" stroke-width="1" fill="none" fill-rule="evenodd">
        <path d="M51.277704,-2.07168062e-15 L433.722296,2.07168062e-15 C451.552671,-1.2037061e-15 458.018396,1.85651222 464.536914,5.34265408 C471.055433,8.82879593 476.171204,13.9445674 479.657346,20.4630859 C483.143488,26.9816044 485,33.4473292 485,51.277704 L485,208.722296 C485,226.552671 483.143488,233.018396 479.657346,239.536914 C476.171204,246.055433 471.055433,251.171204 464.536914,254.657346 C458.018396,258.143488 451.552671,260 433.722296,260 L51.277704,260 C33.4473292,260 26.9816044,258.143488 20.4630859,254.657346 C13.9445674,251.171204 8.82879593,246.055433 5.34265408,239.536914 C1.85651222,233.018396 8.02470732e-16,226.552671 -1.38112041e-15,208.722296 L1.38112041e-15,51.277704 C-8.02470732e-16,33.4473292 1.85651222,26.9816044 5.34265408,20.4630859 C8.82879593,13.9445674 13.9445674,8.82879593 20.4630859,5.34265408 C26.9816044,1.85651222 33.4473292,1.2037061e-15 51.277704,-2.07168062e-15 Z" id="Rectangle-Copy" fill="url(#linearGradient-1)"></path>
        <path d="M86.6815,195 L86.6815,161.877 L108.7635,161.877 C120.226833,161.877 130.181833,159.9765 138.6285,156.1755 C147.075167,152.3745 153.591167,146.974667 158.1765,139.976 C162.761833,132.977333 165.0545,124.711667 165.0545,115.179 C165.0545,105.646333 162.761833,97.3505 158.1765,90.2915 C153.591167,83.2325 147.075167,77.8025 138.6285,74.0015 C130.181833,70.2005 120.226833,68.3 108.7635,68.3 L108.7635,68.3 L50.8435,68.3 L50.8435,195 L86.6815,195 Z M106.5915,133.641 L86.6815,133.641 L86.6815,96.536 L106.5915,96.536 C113.952167,96.536 119.502833,98.165 123.2435,101.423 C126.984167,104.681 128.8545,109.266333 128.8545,115.179 C128.8545,121.091667 126.984167,125.646833 123.2435,128.8445 C119.502833,132.042167 113.952167,133.641 106.5915,133.641 L106.5915,133.641 Z M215.2685,195 L215.2685,161.334 L234.8165,161.334 L257.8035,195 L296.1755,195 L268.8445,155.18 C276.8085,151.318667 282.932333,145.979167 287.216,139.1615 C291.499667,132.343833 293.6415,124.349667 293.6415,115.179 C293.6415,105.646333 291.348833,97.3505 286.7635,90.2915 C282.178167,83.2325 275.662167,77.8025 267.2155,74.0015 C258.768833,70.2005 248.813833,68.3 237.3505,68.3 L237.3505,68.3 L179.4305,68.3 L179.4305,195 L215.2685,195 Z M235.1785,133.641 L215.2685,133.641 L215.2685,96.536 L235.1785,96.536 C242.539167,96.536 248.089833,98.165 251.8305,101.423 C255.571167,104.681 257.4415,109.266333 257.4415,115.179 C257.4415,121.091667 255.571167,125.646833 251.8305,128.8445 C248.089833,132.042167 242.539167,133.641 235.1785,133.641 L235.1785,133.641 Z M374.2635,197.534 C387.6575,197.534 399.694,194.698333 410.373,189.027 C421.052,183.355667 429.438333,175.512333 435.532,165.497 C441.625667,155.481667 444.6725,144.199333 444.6725,131.65 C444.6725,119.100667 441.625667,107.818333 435.532,97.803 C429.438333,87.7876667 421.052,79.9443333 410.373,74.273 C399.694,68.6016667 387.6575,65.766 374.2635,65.766 C360.8695,65.766 348.833,68.6016667 338.154,74.273 C327.475,79.9443333 319.088667,87.7876667 312.995,97.803 C306.901333,107.818333 303.8545,119.100667 303.8545,131.65 C303.8545,144.199333 306.901333,155.481667 312.995,165.497 C319.088667,175.512333 327.475,183.355667 338.154,189.027 C348.833,194.698333 360.8695,197.534 374.2635,197.534 Z M374.2635,167.85 C367.868167,167.85 362.076167,166.341667 356.8875,163.325 C351.698833,160.308333 347.596167,156.054833 344.5795,150.5645 C341.562833,145.074167 340.0545,138.769333 340.0545,131.65 C340.0545,124.530667 341.562833,118.225833 344.5795,112.7355 C347.596167,107.245167 351.698833,102.991667 356.8875,99.975 C362.076167,96.9583333 367.868167,95.45 374.2635,95.45 C380.658833,95.45 386.450833,96.9583333 391.6395,99.975 C396.828167,102.991667 400.930833,107.245167 403.9475,112.7355 C406.964167,118.225833 408.4725,124.530667 408.4725,131.65 C408.4725,138.769333 406.964167,145.074167 403.9475,150.5645 C400.930833,156.054833 396.828167,160.308333 391.6395,163.325 C386.450833,166.341667 380.658833,167.85 374.2635,167.85 Z" id="PRO" fill="#FFFFFF" fill-rule="nonzero"></path>
    </g>
</svg>